<?xml version="1.0" encoding="UTF-8" ?>
<!DOCTYPE svg PUBLIC "-//W3C//DTD SVG 1.1//EN" "http://www.w3.org/Graphics/SVG/1.1/DTD/svg11.dtd">
<svg width="2051pt" height="718pt" viewBox="0 0 2051 718" xmlns="http://www.w3.org/2000/svg">
  <g/>
  <g fill="#ee1b2e">
    <path d="M118.66 20.12c49.77-.28 99.57-.09 149.35-.15 4.23.16 8.48-.23 12.72.19-8.42 54.79-17.06 109.55-25.3 164.36 25.83.03 51.67.02 77.5.01-7.5 50.59-15.55 101.12-23.29 151.68-25.94.14-51.88-.01-77.82.08-9.45 62.38-19.43 124.69-28.74 187.1-53.99.06-107.98 0-161.97.03 2.42-18.22 5.55-36.33 8.26-54.51 23.08-149.6 46.35-299.17 69.29-448.79m262.28.06c40.01-.4 80.05-.06 120.07-.22 11.86.25 23.76-.45 35.6.29-26.08 167.72-51.77 335.5-77.9 503.21-51.76-.11-103.53-.01-155.29-.05 6.92-46.85 14.39-93.62 21.57-140.42 18.59-120.95 37.54-241.84 55.95-362.81m566.82.02c45.35-.5 90.75-.07 136.11-.21-7.83 53.07-16.35 106.05-24.42 159.09-17.74 114.76-35.52 229.52-53.2 344.29-45.37.12-90.73-.03-136.1.08 10.61-70.68 21.83-141.27 32.61-211.93 15.02-97.1 30.1-194.2 45-291.32m166.41 34.78c1.92-11.42 3.3-22.93 5.45-34.32 45.32.07 90.64-.05 135.96.06-25.97 167.84-51.8 335.7-77.88 503.52-45.34-.05-90.68.01-136.02-.03 24.1-156.42 48.36-312.81 72.49-469.23m289.73 93.05c25.61-5.15 52.23-5.1 77.9-.38 33.08 6.05 64.5 22.32 87.24 47.28 8.81 9.39 15.9 20.18 22.19 31.36 4.39-26.75 8.17-53.62 12.61-80.36 48.95-.42 97.95.13 146.91-.27-.25 7.52-2.02 14.89-2.94 22.35-8.58 56.42-16.9 112.88-26.2 169.18-.88 5.3.55 11.03 4.4 14.88 4.88 5.08 12.11 6.98 18.95 7.36 10.2.32 20.93-2.83 28.32-10.12 4.41-4.34 6.56-10.42 7.15-16.48 9.73-62.35 19.14-124.76 29.03-187.08 46.36.05 92.72.09 139.08-.02-6.65 47.18-14.17 94.25-21.16 141.39-11.01 72.36-22.03 144.71-33.6 216.98-2.97 16.48-4.73 33.35-10.65 49.13-12.54 34.54-36.71 63.99-65.63 86.23-18.31 14.21-38.66 25.68-59.9 34.87-50.43 22.34-107.46 27.27-161.64 18.75-8.14-1.61-16.58-2.49-24.32-5.56 6.66-40.1 12.42-80.35 18.86-120.49 23.28 6.03 47.32 10.72 71.49 8.91 18.12-1.24 36.34-6.19 51.5-16.45 9.88-6.66 18.42-15.42 24.45-25.72 2.62-4.55 5.18-9.35 5.64-14.67 1.62-12.51 4.31-24.9 5.36-37.47-21.56 8.24-43.9 14.88-66.89 17.48-20.65 2.17-42.31.97-61.41-7.8-15.35-6.78-28.22-18.56-37.01-32.79-10.14-16.39-15.66-35.32-17.7-54.39-.4-4.06-.78-8.17-.23-12.23 8.22-53.31 16.53-106.6 24.69-159.91-27.19 26.94-53.87 54.4-80.95 81.47-23.38 23.73-46.99 47.24-70.31 71.04 21.21 4.38 43.26-2.65 60.88-14.5 4.42-2.64 8.01-6.4 12.32-9.19 7.55 42.84 14.68 85.76 22.12 128.62-40.03 18.57-82.85 32.28-127.04 35.61-32.41 2.2-65.87-1.23-95.76-14.6-8.13-3.51-15.32-8.72-23-13.05-30.16-18.77-52.61-49.2-62.5-83.25-6.66-22.68-8.07-46.68-5.72-70.12 3.44-39.3 19.61-76.9 43.78-107.89 34.52-44.25 84.57-76.68 139.69-88.1m14.14 131.73c-11.92 2.26-22.41 9.04-31.46 16.86-11.56 10.27-20.5 24.6-21.16 40.36-.55 9.36 2.61 19.02 9.4 25.62 25.61-24.57 51.65-48.68 77.15-73.36-3.23-2.57-6.47-5.23-10.28-6.88-7.32-3.52-15.75-3.89-23.65-2.6m578.21-134.48c4.46-.36 9.21-.1 13.15 2.26 6.2 3.36 10.05 10.5 9.51 17.53-.09 15.03-15.09 28.08-30.01 25.8-9.29-.78-16.83-9.66-16.48-18.9-.24-13.17 10.94-25.14 23.83-26.69m-1.82 3.33c-10.54 2.34-19.09 12.43-18.73 23.39.03 8.15 7.07 15.65 15.31 15.82 12.64 1.15 24.68-10.18 24.61-22.82.21-5.86-3.02-11.64-8.09-14.55-3.88-2.46-8.72-2.56-13.1-1.84m-1296.92 1.22c41.59-4.88 85.38 2.98 120.91 25.73 30.95 19.48 54.51 50.36 64.88 85.46 11.39 37.44 8.08 78.18-4.75 114.82-25.31 72.1-87.63 130.08-161.48 149.83-42.09 11.17-88.49 9.4-128.08-9.66-32.38-15.31-59.11-42.21-74.1-74.76-17.33-36.62-19.64-79.15-10.54-118.31 8.86-38.78 28.67-74.86 56.09-103.6 35.83-38.02 85.02-63.64 137.07-69.51m-5.04 143.89c-20.56 3.27-38.77 17.71-47.16 36.68-5 11.34-6.73 24.42-3.39 36.46 2.6 9.53 8.38 18.25 16.49 23.96 10.14 7.36 23.33 9.98 35.62 8.04 29.93-4.32 55.31-32.26 54.55-62.87-.2-13.27-6.81-26.39-17.71-34.05-10.9-8.04-25.21-10.35-38.4-8.22"/>
    <path d="M1988.45 155.28c5.49.59 11.53-1.1 16.62 1.62 4.59 3.7.8 12.04-4.93 11.86 1.31.61 2.94 1.01 3.63 2.47 1.66 2.9.34 6.34-.02 9.42-1.32-.03-2.62-.06-3.89-.07.32-3 1.01-6.2-.52-8.99-2.84-.89-5.8-1.1-8.73-1.01-.53 3.34-1.1 6.67-1.55 10.02l-4.64-.06c1.46-8.4 2.47-16.87 4.03-25.26m4 3.14c-.53 3.03-.97 6.07-1.28 9.13 3.2-.27 6.96.59 9.71-1.56 1.76-1.53 1.52-4.03 1.5-6.13-3.04-1.74-6.59-1.41-9.93-1.44"/>
  </g>
</svg>
